<svg xmlns="http://www.w3.org/2000/svg" viewBox="0 0 480 480"><path d="M440 256h-.208A39.583 39.583 0 00448 232v-16c0-22.091-17.909-40-40-40s-40 17.909-40 40v16a39.618 39.618 0 008.248 24.056 40.063 40.063 0 00-32.704 18.24l-21.808 38.352-16.48-35.792a7.466 7.466 0 00-.488-.896 41.334 41.334 0 00-33.072-19.84A39.593 39.593 0 00280 232v-16c0-22.091-17.909-40-40-40s-40 17.909-40 40v16a39.618 39.618 0 008.248 24.056 39.856 39.856 0 00-32.408 17.76c-.24.361-.452.741-.632 1.136l-17 37.6-22.048-38.736a39.856 39.856 0 00-32.408-17.76A39.618 39.618 0 00112 232v-16c0-22.091-17.909-40-40-40s-40 17.909-40 40v16a39.583 39.583 0 008.208 24H40c-22.08.026-39.974 17.92-40 40v64a8 8 0 008 8h24v104a8 8 0 008 8h64a8 8 0 008-8V323.888l25.216 40.352A8 8 0 00144 368h32a8.001 8.001 0 006.912-4c.048-.08.064-.176.112-.264.048-.088.096-.112.136-.184L200 329.888V472a8 8 0 008 8h64a8 8 0 008-8V329.888l16.8 33.688c.04.08.104.136.144.208.04.072.056.16.104.24.18.279.377.547.592.8.178.259.37.507.576.744.298.292.619.56.96.8.555.507 1.22.877 1.944 1.08.226.11.459.206.696.288A8.002 8.002 0 00304 368h32a8 8 0 006.784-3.76L368 323.888V472a8 8 0 008 8h64a8 8 0 008-8V368h24a8 8 0 008-8v-64c-.026-22.08-17.92-39.974-40-40zm-56-40c0-13.255 10.745-24 24-24s24 10.745 24 24v16c0 13.255-10.745 24-24 24s-24-10.745-24-24v-16zm-168 0c0-13.255 10.745-24 24-24s24 10.745 24 24v16c0 13.255-10.745 24-24 24s-24-10.745-24-24v-16zm-168 0c0-13.255 10.745-24 24-24s24 10.745 24 24v16c0 13.255-10.745 24-24 24s-24-10.745-24-24v-16zm48 248H80v-80H64v80H48v-96h48v96zm52.432-112l-37.648-60.24A8 8 0 0096 296v56H48v-56H32v56H16v-56c0-13.255 10.745-24 24-24h24v64h16v-64h21.88c.456 0 .92 0 1.376.04h1.248a23.699 23.699 0 0118.04 10.144L162.248 352h-13.816zM264 464h-16v-80h-16v80h-16v-96h48v96zm40-121.888l-24.8-49.688A8 8 0 00264 296v56h-48v-56a8.001 8.001 0 00-7.992-8.008 7.998 7.998 0 00-7.167 4.432L176 342.112l-7.144-14.28 20.64-45.648A24.003 24.003 0 01209.128 272H232v64h16v-64h21.88a24.985 24.985 0 0121.072 12.04l20.176 43.816L304 342.112zM432 464h-16v-80h-16v80h-16v-96h48v96zm32-112h-16v-56h-16v56h-48v-56a8 8 0 00-14.784-4.24L331.568 352h-13.816l39.408-69.312a23.928 23.928 0 0118.336-10.632h1.248c.456 0 .92-.04 1.376-.04H400v64h16V272h24c13.255 0 24 10.745 24 24v56z"/><path d="M240 0C107.514.15.15 107.514 0 240v8h16v-8a222.713 222.713 0 0121.656-96h73.264c-2.568 10.152-4.8 20.392-6.4 30.768l15.808 2.464A321.393 321.393 0 01127.432 144H232v16h16v-16h104.952a321.347 321.347 0 017.144 33.224l15.808-2.448c-1.6-10.4-3.88-20.616-6.4-30.776h72.88A222.71 222.71 0 01464 240v8h16v-8C479.85 107.514 372.486.15 240 0zm-76 29.288c-6.152 8.656-11.944 17.544-17.272 26.712h-34.264A223.394 223.394 0 01164 29.288zM115.32 128H46.136a225.462 225.462 0 0145.936-56h45.816a341.973 341.973 0 00-22.568 56zM232 128h-99.856a325.956 325.956 0 0124-56H232v56zm.032-72h-66.6a324.93 324.93 0 0120.424-29.424l3.776-4.8a223.156 223.156 0 0142.4-5.6V56zm135.504 0h-33.88a334.15 334.15 0 00-17.168-26.536A223.691 223.691 0 01367.536 56zM248 16.2a223.386 223.386 0 0142.832 5.688l3.688 4.688A323.447 323.447 0 01314.952 56H248V16.2zm0 111.8V72h76.232a325.386 325.386 0 0124 56H248zm117.064 0a342.614 342.614 0 00-22.568-56h45.432a225.462 225.462 0 0145.936 56h-68.8z"/><path d="M128 216h16v16h-16zm32 0h16v16h-16zm144 0h16v16h-16zm32 0h16v16h-16z"/></svg>